# xmcd
#
# Track frame offsets:
# 150
# 84991
# 135188
# 181108
# 201975
#
# Disc length: 3825 seconds
#
# Revision: 0
# Processed by: cddbd v1.4PL0 Copyright (c) Steve Scherf et al.
# Submitted via: Audion 3.0.2 (http://www.panic.com/audion/)
#
DISCID=340eef05
DTITLE=Birchville Cat Motel - We count these prayers
DYEAR=1900
DGENRE=
TTITLE0=Another Miners Light
TTITLE1=Slow Vehicle Bay
TTITLE2=We Count These Prayers (As They Are Recited)
TTITLE3=Lazy Bones Digger
TTITLE4=Shapeshifter
EXTD=
EXTT0=
EXTT1=
EXTT2=
EXTT3=
EXTT4=
PLAYORDER=
